<?xml version="1.0" encoding="utf-8"?>
<!-- Generator: Adobe Illustrator 24.3.0, SVG Export Plug-In . SVG Version: 6.00 Build 0)  -->
<svg version="1.1" id="레이어_1" xmlns="http://www.w3.org/2000/svg" xmlns:xlink="http://www.w3.org/1999/xlink" x="0px"
	 y="0px" viewBox="0 0 412.8 170.49" style="enable-background:new 0 0 412.8 170.49;" xml:space="preserve">
<style type="text/css">
	.st0{fill:#4E8891;}
	.st1{fill:#579AA3;}
	.st2{fill:#583D3D;}
	.st3{fill:#D74545;}
</style>
<path class="st0" d="M337.7,53.62c2.3,0,4.43,0.66,6.25,1.79c3.57-6.58,10.55-11.05,18.56-11.05c11.66,0,21.11,9.45,21.11,21.11
	h-34.07h-8.15h-15.55C325.85,58.93,331.15,53.62,337.7,53.62"/>
<path class="st1" d="M365.94,54.75c2.3,0,4.43,0.66,6.25,1.79c3.57-6.58,10.55-11.05,18.56-11.05c11.66,0,21.11,9.45,21.11,21.11
	h-34.07h-8.15h-15.55C354.09,60.06,359.4,54.75,365.94,54.75"/>
<path class="st2" d="M33.93,47.52c-0.97-0.22-10.99-1.34-15.59-1.41c0.07-5.27,0.67-18.48,1.11-22.56c0.15-1.41-0.3-3.71-4.31-4.38
	c-0.89-0.15-1.78-0.22-2.6-0.22c-2.23,0-3.79,0.44-4.38,1.71C6.99,23.1,3.94,43.29,3.72,49.6c-0.15,4.68,2.82,7.5,6.75,7.5
	c5.57,0,18.63-0.52,23.53-1.41c2.01-0.37,2.08-2.75,2.15-4.53C36.23,48.78,35.78,47.82,33.93,47.52"/>
<path class="st2" d="M66.74,36.31c-3.04-1.41-8.31-2.38-12.54-2.82c0.07-2.15,0.07-4.3,0.07-6.46c0-4.82-0.15-9.5-0.52-12.91
	c-0.22-1.63-3.49-2.75-7.12-2.52c-3.71,0.22-5.79,1.26-5.72,2.75c0.44,7.35,0.59,16.33,0.59,26.05c0,8.09-0.08,15.73-0.3,20.41
	c-0.08,2.08,2.15,2.3,4.01,2.45c2.08,0,5.72,0.96,6.46-1.71c0.96-3.64,1.71-9.94,2.08-17l10.99,0.74c2.37,0.22,3.56-0.59,3.93-2.97
	c0.15-0.74,0.15-1.63,0.15-2.23C68.82,38.17,68.22,36.98,66.74,36.31"/>
<path class="st2" d="M106.51,35.79c0.07-2.3-0.67-4.6-3.27-4.68c0.59-4.82,0.74-10.99,0.74-16.33c0-4.68-2.67-7.35-7.87-7.5
	c-4.6-0.15-7.2,0.74-12.62,1.56c-1.04-2.23-1.71-4.16-7.72-2.6c-1.34,0.3-5.86,2.23-5.57,4.97c0.89,8.61,3.04,24.94,3.56,28.65
	c0.37,2.75,2.15,3.04,4.9,2.67c3.12-0.37,4.9-0.44,5.57-1.71c7.57-0.22,17.44-0.74,19.82-1.19
	C106.07,39.28,106.44,37.57,106.51,35.79 M84.69,31.41c-0.07-5.34-0.37-11.43-0.52-14.92c3.41-0.22,6.61-0.59,8.61-0.59
	c0.22,4.97,0.3,9.95,0.37,14.92L84.69,31.41z"/>
<path class="st2" d="M137.24,21.47c-2.82-1.26-7.57-2.23-11.58-2.67c0.74-5.86,1.26-11.5,1.48-15.88c0.07-1.49-2.89-2.82-6.16-2.9
	c-3.27-0.15-5.12,0.74-5.19,2.15c-0.89,14.32-3.19,32.44-4.53,42.68c-0.22,1.93,2.52,2.67,4.08,2.97c1.63,0.37,4.53,1.41,5.19-0.97
	c1.04-3.64,2.38-10.02,3.49-17.15l11.21,0.74c2.38,0.22,3.56-0.59,3.93-2.97c0.15-0.74,0.15-1.63,0.15-2.23
	C139.32,23.32,138.73,22.13,137.24,21.47"/>
<path class="st2" d="M123.21,59.99c-4.08,0.07-14.4-0.22-19.3,0c0.59-2.15,1.41-5.2,1.86-7.05c0.37-1.41,2.15-5.27-4.23-5.72
	c-3.04-0.22-5.79,2.67-6.61,4.31c-1.19,2.38-3.04,7.42-3.71,10.47c-0.96,4.53,2,6.53,5.57,6.53c5.64,0,19.15,0.22,26.65-0.74
	c1.56-0.22,1.41-2.08,1.48-3.93C125,62.07,124.62,59.99,123.21,59.99"/>
<path class="st2" d="M179.99,51.82c-5.05-0.96-30.73-0.07-35.26,1.34c-1.63,0.52-2,3.19-1.63,5.72c0.3,2.52,1.26,3.86,2.82,3.71
	c4.97-0.44,29.24-2.82,33.77-3.34c1.71-0.22,1.71-2.52,1.78-4.08C181.47,53.75,181.4,52.12,179.99,51.82"/>
<path class="st2" d="M157.35,46.78c11.21,1.93,16.55-7.2,18.18-14.77c1.19-5.57,0.3-10.84-1.33-14.4l0.67-0.89
	c1.26-1.71,0.15-4.16-2.38-5.34c-2.38-1.11-6.24-1.71-9.43,0.52c-5.79,4.01-11.06,9.06-13.73,15.88
	C145.03,38.83,150,45.51,157.35,46.78 M160.62,28.67c2.52-3.86,4.3-4.75,6.46-5.34c0.45,1.85,0.45,4.68-0.82,8.31
	c-0.67,1.85-3.49,7.57-6.53,7.35C156.61,38.76,158.76,31.49,160.62,28.67"/>
<path class="st3" d="M33.09,94.03l-0.88,2.2c4.1,0.29,7.97,1.03,11.6,2.2c3.63,1.17,6.88,2.82,9.74,4.95
	c2.79,2.13,5.13,4.71,7.04,7.76c1.91,3.04,3.15,6.54,3.74,10.51c0.15,1.17-0.02,2.13-0.49,2.86c-0.48,0.74-1.78,1.1-3.91,1.1H47.94
	c-1.61,0-2.71-0.2-3.3-0.61c-0.59-0.4-1.21-1.34-1.87-2.8c-0.66-1.39-1.52-2.71-2.58-3.96c-1.06-1.25-2.29-2.35-3.68-3.3
	c-1.47-0.95-3.06-1.65-4.78-2.09c-1.73-0.44-3.5-0.51-5.34-0.22l-3.41,9.24c-0.95,2.49-2.35,3.74-4.18,3.74H3.61
	c-1.32,0-2.31-0.38-2.97-1.16c-0.66-0.77-0.81-1.63-0.44-2.58l9.57-27.83H4.93c-1.03,0-1.91-0.37-2.64-1.1
	c-0.73-0.73-1.1-1.61-1.1-2.64v-9.57c0-1.1,0.37-2.04,1.1-2.81c0.73-0.77,1.61-1.15,2.64-1.15h52.36c1.03,0,1.91,0.38,2.64,1.15
	c0.73,0.77,1.1,1.71,1.1,2.81v9.57c0,1.03-0.37,1.91-1.1,2.64c-0.73,0.73-1.61,1.1-2.64,1.1H33.09z M91.94,151.02
	c1.03,0,1.89,0.38,2.58,1.15c0.7,0.77,1.04,1.67,1.04,2.7v11.11c0,1.1-0.35,2-1.04,2.69c-0.7,0.7-1.56,1.04-2.58,1.04H20.11
	c-1.54,0-2.99-0.29-4.34-0.88c-1.36-0.59-2.55-1.36-3.58-2.31c-1.1-1.03-1.94-2.22-2.53-3.58c-0.59-1.36-0.88-2.8-0.88-4.34v-23.32
	c0-1.1,0.4-2.01,1.21-2.75c0.81-0.73,1.72-1.1,2.75-1.1h16.5c1.03,0,1.91,0.37,2.64,1.1c0.73,0.74,1.1,1.65,1.1,2.75v15.73H91.94z
	 M70.49,90.85V79.41c0-1.03,0.37-1.91,1.1-2.64c0.73-0.73,1.61-1.1,2.64-1.1h16.5c1.03,0,1.91,0.37,2.64,1.1
	c0.73,0.73,1.1,1.61,1.1,2.64v54.34c0,1.1-0.37,2-1.1,2.7c-0.73,0.7-1.61,1.04-2.64,1.04h-16.5c-1.03,0-1.91-0.35-2.64-1.04
	c-0.74-0.7-1.1-1.6-1.1-2.7v-22.88h-5.83c-1.03,0-1.91-0.37-2.64-1.1c-0.73-0.73-1.1-1.61-1.1-2.64V94.81c0-1.1,0.36-2.04,1.1-2.81
	c0.73-0.77,1.61-1.15,2.64-1.15H70.49z"/>
<path class="st3" d="M195.34,139.24c1.03,0,1.89,0.37,2.59,1.1c0.7,0.73,1.04,1.61,1.04,2.64v11.66c0,1.1-0.35,2-1.04,2.7
	c-0.7,0.7-1.56,1.04-2.59,1.04h-32.01v8.36c0,1.1-0.37,2-1.1,2.7c-0.73,0.7-1.61,1.04-2.64,1.04h-16.94c-1.03,0-1.91-0.35-2.64-1.04
	c-0.73-0.7-1.1-1.6-1.1-2.7v-8.36H106.9c-1.03,0-1.89-0.35-2.59-1.04c-0.7-0.7-1.04-1.6-1.04-2.7v-11.66c0-1.03,0.35-1.91,1.04-2.64
	c0.7-0.73,1.56-1.1,2.59-1.1H195.34z M152.99,96.02l-1.65,2.86c12.98,1.17,23.19,4.38,30.63,9.62c7.44,5.24,12.12,12.41,14.03,21.51
	c0.22,1.1,0.11,2.05-0.33,2.86c-0.44,0.81-1.5,1.21-3.19,1.21h-14.3c-1.54,0-2.8-0.17-3.79-0.5c-0.99-0.33-1.71-1.08-2.14-2.25
	c-1.98-5.28-5.57-9.11-10.78-11.5c-5.21-2.38-11.99-3.87-20.35-4.46l-9.46,15.18c-0.88,1.54-2.05,2.53-3.52,2.97
	c-1.47,0.44-2.86,0.66-4.18,0.66h-15.4c-1.17,0-2-0.29-2.47-0.88c-0.48-0.59-0.35-1.5,0.39-2.75l21.34-34.54h-18.04
	c-1.03,0-1.91-0.37-2.64-1.1c-0.73-0.73-1.1-1.61-1.1-2.64V80.73c0-1.1,0.37-2.04,1.1-2.81c0.73-0.77,1.61-1.15,2.64-1.15h82.72
	c1.03,0,1.91,0.39,2.64,1.15c0.73,0.77,1.1,1.71,1.1,2.81v11.55c0,1.03-0.37,1.91-1.1,2.64c-0.73,0.74-1.61,1.1-2.64,1.1H152.99z"/>
<path class="st3" d="M245.16,76.76c4.84,0,9.15,1.17,12.93,3.52c3.78,2.35,6.62,5.5,8.53,9.46h10.56V80.5
	c0-1.03,0.35-1.91,1.04-2.64c0.7-0.73,1.56-1.1,2.58-1.1h16.61c1.03,0,1.91,0.37,2.64,1.1c0.73,0.73,1.1,1.61,1.1,2.64v86.24
	c0,1.1-0.37,2-1.1,2.7c-0.73,0.7-1.61,1.04-2.64,1.04H280.8c-1.03,0-1.89-0.35-2.58-1.04c-0.7-0.7-1.04-1.6-1.04-2.7v-22.88h-8.14
	c-0.07,3.37-0.71,6.49-1.92,9.35c-1.21,2.86-2.88,5.32-5.01,7.37c-2.2,2.05-4.73,3.67-7.59,4.84c-2.86,1.17-5.98,1.76-9.35,1.76
	h-14.08c-3.45,0-6.62-0.59-9.51-1.76c-2.9-1.17-5.41-2.82-7.54-4.95c-2.13-2.13-3.78-4.64-4.95-7.54c-1.17-2.9-1.76-6.07-1.76-9.52
	v-42.79c0-3.44,0.58-6.64,1.76-9.57c1.17-2.93,2.82-5.46,4.95-7.59c2.13-2.13,4.64-3.78,7.54-4.95c2.9-1.17,6.07-1.76,9.51-1.76
	H245.16z M236.91,95.46c-0.51,0-1.12,0.09-1.81,0.28c-0.7,0.18-1.38,0.5-2.04,0.93c-0.66,0.44-1.23,1.08-1.71,1.93
	c-0.48,0.84-0.71,1.93-0.71,3.25v40.37c0,1.32,0.24,2.38,0.71,3.19c0.48,0.81,1.05,1.43,1.71,1.87c0.66,0.44,1.34,0.75,2.04,0.94
	c0.7,0.18,1.3,0.27,1.81,0.27h2.64c0.51,0,1.14-0.09,1.87-0.27c0.73-0.18,1.43-0.5,2.09-0.94c0.66-0.44,1.23-1.06,1.7-1.87
	c0.48-0.81,0.72-1.87,0.72-3.19v-40.37c0-1.32-0.24-2.4-0.72-3.25c-0.48-0.84-1.04-1.49-1.7-1.93c-0.66-0.44-1.36-0.75-2.09-0.93
	c-0.73-0.18-1.36-0.28-1.87-0.28H236.91z M269.03,122.74h8.14v-11.88h-8.14V122.74z"/>
<path class="st3" d="M311.27,101.73c0-3.23,0.48-6.05,1.43-8.47c-1.03,0-1.89-0.37-2.58-1.1c-0.7-0.73-1.04-1.61-1.04-2.64v-7.7
	c0-1.1,0.36-2.04,1.1-2.81c0.73-0.77,1.61-1.15,2.64-1.15h11.66v-3.52c0-1.03,0.35-1.91,1.05-2.64c0.7-0.73,1.56-1.1,2.59-1.1h14.41
	c1.03,0,1.91,0.37,2.64,1.1c0.73,0.73,1.1,1.61,1.1,2.64v3.52h11.33c1.03,0,1.91,0.39,2.64,1.15c0.73,0.77,1.1,1.71,1.1,2.81v7.7
	c0,1.03-0.37,1.91-1.1,2.64c-0.73,0.73-1.61,1.1-2.64,1.1c1.03,2.64,1.54,5.46,1.54,8.47v0.11c0,6.89-1.89,12.21-5.66,15.95
	c-3.78,3.74-9.11,5.61-16.01,5.61h-4.62c-6.89,0-12.21-1.87-15.95-5.61c-3.74-3.74-5.61-9.06-5.61-15.95V101.73z M393.99,126.6
	c2.56,0,4.98,0.49,7.26,1.48c2.27,0.99,4.29,2.33,6.05,4.02c1.69,1.69,3.03,3.67,4.02,5.94c0.99,2.27,1.48,4.69,1.48,7.26v5.94
	c0,2.64-0.49,5.1-1.48,7.37c-0.99,2.27-2.33,4.25-4.02,5.94c-1.76,1.69-3.78,3.01-6.05,3.96c-2.27,0.95-4.7,1.43-7.26,1.43h-59.95
	c-2.57,0-4.99-0.48-7.26-1.43c-2.27-0.95-4.25-2.27-5.94-3.96c-1.69-1.69-3.02-3.67-4.01-5.94c-0.99-2.27-1.49-4.73-1.49-7.37v-5.94
	c0-2.57,0.49-4.99,1.49-7.26c0.99-2.27,2.33-4.25,4.01-5.94c1.69-1.69,3.67-3.03,5.94-4.02c2.27-0.99,4.69-1.48,7.26-1.48H393.99z
	 M341.3,98.54c0-0.95-0.15-1.76-0.44-2.42c-0.29-0.66-0.66-1.21-1.1-1.65c-0.51-0.37-1.06-0.64-1.65-0.83
	c-0.59-0.18-1.14-0.31-1.65-0.38h-1.65c-1.03,0.15-2.07,0.57-3.14,1.26c-1.06,0.7-1.59,2.03-1.59,4.01v4.29
	c0,1.03,0.18,1.87,0.55,2.53c0.37,0.66,0.81,1.17,1.32,1.54c0.51,0.44,1.06,0.73,1.65,0.88c0.59,0.15,1.14,0.22,1.65,0.22h0.77
	c0.51,0,1.08-0.07,1.7-0.22c0.62-0.15,1.19-0.44,1.7-0.88c0.51-0.37,0.95-0.88,1.32-1.54c0.37-0.66,0.55-1.5,0.55-2.53V98.54z
	 M341.3,144.31c-2.35,0-3.52,1.06-3.52,3.19v1.76c0,2.05,1.17,3.08,3.52,3.08h45.43c1.03,0,1.89-0.29,2.59-0.88
	c0.7-0.59,1.05-1.32,1.05-2.2v-1.76c0-1.03-0.33-1.81-0.99-2.37c-0.66-0.55-1.54-0.82-2.64-0.82H341.3z M381.56,75.66
	c1.03,0,1.91,0.37,2.64,1.1c0.73,0.73,1.1,1.61,1.1,2.64v9.24h5.17V79.4c0-1.03,0.35-1.91,1.05-2.64s1.56-1.1,2.59-1.1h14.3
	c1.02,0,1.9,0.37,2.64,1.1c0.73,0.73,1.1,1.61,1.1,2.64v40.15c0,1.1-0.37,2-1.1,2.69c-0.73,0.7-1.61,1.05-2.64,1.05h-14.3
	c-1.03,0-1.89-0.35-2.59-1.05c-0.7-0.7-1.05-1.59-1.05-2.69v-11.99h-5.17v11.77c0,1.1-0.37,2-1.1,2.7c-0.74,0.7-1.61,1.04-2.64,1.04
	h-14.08c-1.03,0-1.89-0.35-2.58-1.04c-0.7-0.7-1.05-1.59-1.05-2.7V79.4c0-1.03,0.35-1.91,1.05-2.64c0.69-0.73,1.56-1.1,2.58-1.1
	H381.56z"/>
<path class="st3" d="M220.7,19.88c-0.98-0.92-5.93,0.81-10.05-3.4c-5.85-5.97-14.64-6.27-17.2-6.22c-0.51-0.03-1.04-0.04-1.58,0
	c-3.26,0.22-5.12,1.19-5.05,2.6c0.26,4.25,0.43,9.59,0.52,15.22c5.11-2.92,9.27-1.45,11.29-1.27c1.83-0.9,4.65-1.43,8.92-0.37
	C215.8,28.5,221.64,20.77,220.7,19.88"/>
<path class="st2" d="M187.34,28.08c0.21,12.15,0.08,25.68-0.23,32.73c-0.07,2,1.78,2.15,3.34,2.3c1.78,0.15,5.05,0.82,5.57-1.56
	c1.41-6.07,2.53-21.67,2.6-34.73c0.01,0,0.01-0.01,0.02-0.01C196.61,26.62,192.46,25.15,187.34,28.08"/>
</svg>
