<?xml version="1.0" encoding="utf-8"?>
<!-- Generator: Adobe Illustrator 24.3.0, SVG Export Plug-In . SVG Version: 6.00 Build 0)  -->
<svg version="1.1" id="레이어_1" xmlns="http://www.w3.org/2000/svg" xmlns:xlink="http://www.w3.org/1999/xlink" x="0px"
	 y="0px" viewBox="0 0 412.8 170.5" style="enable-background:new 0 0 412.8 170.5;" xml:space="preserve">
<style type="text/css">
	.st0{fill:#F7F7F7;}
	.st1{fill:#FFFFFF;}
	.st2{fill:#C5C5C5;}
	.st3{fill:#F0F0F0;}
</style>
<path class="st0" d="M337.7,53.6c2.3,0,4.4,0.7,6.2,1.8c3.6-6.6,10.5-11,18.6-11c11.7,0,21.1,9.5,21.1,21.1h-34.1h-8.1h-15.5
	C325.9,58.9,331.1,53.6,337.7,53.6"/>
<path class="st1" d="M365.9,54.8c2.3,0,4.4,0.7,6.2,1.8c3.6-6.6,10.5-11,18.6-11c11.7,0,21.1,9.5,21.1,21.1h-34.1h-8.1h-15.5
	C354.1,60.1,359.4,54.8,365.9,54.8"/>
<path class="st2" d="M33.9,47.5c-1-0.2-11-1.3-15.6-1.4c0.1-5.3,0.7-18.5,1.1-22.6c0.1-1.4-0.3-3.7-4.3-4.4C14.3,19,13.4,19,12.5,19
	c-2.2,0-3.8,0.4-4.4,1.7C7,23.1,3.9,43.3,3.7,49.6c-0.2,4.7,2.8,7.5,6.8,7.5c5.6,0,18.6-0.5,23.5-1.4c2-0.4,2.1-2.8,2.2-4.5
	C36.2,48.8,35.8,47.8,33.9,47.5"/>
<path class="st2" d="M66.7,36.3c-3-1.4-8.3-2.4-12.5-2.8c0.1-2.1,0.1-4.3,0.1-6.5c0-4.8-0.2-9.5-0.5-12.9c-0.2-1.6-3.5-2.8-7.1-2.5
	c-3.7,0.2-5.8,1.3-5.7,2.8c0.4,7.4,0.6,16.3,0.6,26c0,8.1-0.1,15.7-0.3,20.4c-0.1,2.1,2.2,2.3,4,2.5c2.1,0,5.7,1,6.5-1.7
	c1-3.6,1.7-9.9,2.1-17l11,0.7c2.4,0.2,3.6-0.6,3.9-3c0.2-0.7,0.2-1.6,0.2-2.2C68.8,38.2,68.2,37,66.7,36.3"/>
<path class="st2" d="M106.5,35.8c0.1-2.3-0.7-4.6-3.3-4.7c0.6-4.8,0.7-11,0.7-16.3c0-4.7-2.7-7.3-7.9-7.5C91.5,7.1,88.9,8,83.5,8.8
	c-1-2.2-1.7-4.2-7.7-2.6c-1.3,0.3-5.9,2.2-5.6,5c0.9,8.6,3,24.9,3.6,28.7c0.4,2.8,2.2,3,4.9,2.7c3.1-0.4,4.9-0.4,5.6-1.7
	c7.6-0.2,17.4-0.7,19.8-1.2C106.1,39.3,106.4,37.6,106.5,35.8 M84.7,31.4c-0.1-5.3-0.4-11.4-0.5-14.9c3.4-0.2,6.6-0.6,8.6-0.6
	c0.2,5,0.3,9.9,0.4,14.9L84.7,31.4z"/>
<path class="st2" d="M137.2,21.5c-2.8-1.3-7.6-2.2-11.6-2.7c0.7-5.9,1.3-11.5,1.5-15.9c0.1-1.5-2.9-2.8-6.2-2.9
	c-3.3-0.2-5.1,0.7-5.2,2.2c-0.9,14.3-3.2,32.4-4.5,42.7c-0.2,1.9,2.5,2.7,4.1,3c1.6,0.4,4.5,1.4,5.2-1c1-3.6,2.4-10,3.5-17.1
	l11.2,0.7c2.4,0.2,3.6-0.6,3.9-3c0.1-0.7,0.1-1.6,0.1-2.2C139.3,23.3,138.7,22.1,137.2,21.5"/>
<path class="st2" d="M123.2,60c-4.1,0.1-14.4-0.2-19.3,0c0.6-2.2,1.4-5.2,1.9-7c0.4-1.4,2.2-5.3-4.2-5.7c-3-0.2-5.8,2.7-6.6,4.3
	c-1.2,2.4-3,7.4-3.7,10.5c-1,4.5,2,6.5,5.6,6.5c5.6,0,19.2,0.2,26.7-0.7c1.6-0.2,1.4-2.1,1.5-3.9C125,62.1,124.6,60,123.2,60"/>
<path class="st2" d="M180,51.8c-5.1-1-30.7-0.1-35.3,1.3c-1.6,0.5-2,3.2-1.6,5.7c0.3,2.5,1.3,3.9,2.8,3.7c5-0.4,29.2-2.8,33.8-3.3
	c1.7-0.2,1.7-2.5,1.8-4.1C181.5,53.8,181.4,52.1,180,51.8"/>
<path class="st2" d="M157.4,46.8c11.2,1.9,16.6-7.2,18.2-14.8c1.2-5.6,0.3-10.8-1.3-14.4l0.7-0.9c1.3-1.7,0.1-4.2-2.4-5.3
	c-2.4-1.1-6.2-1.7-9.4,0.5c-5.8,4-11.1,9.1-13.7,15.9C145,38.8,150,45.5,157.4,46.8 M160.6,28.7c2.5-3.9,4.3-4.8,6.5-5.3
	c0.4,1.9,0.4,4.7-0.8,8.3c-0.7,1.8-3.5,7.6-6.5,7.3C156.6,38.8,158.8,31.5,160.6,28.7"/>
<path class="st3" d="M33.1,94l-0.9,2.2c4.1,0.3,8,1,11.6,2.2c3.6,1.2,6.9,2.8,9.7,4.9c2.8,2.1,5.1,4.7,7,7.8c1.9,3,3.2,6.5,3.7,10.5
	c0.2,1.2,0,2.1-0.5,2.9c-0.5,0.7-1.8,1.1-3.9,1.1h-12c-1.6,0-2.7-0.2-3.3-0.6c-0.6-0.4-1.2-1.3-1.9-2.8c-0.7-1.4-1.5-2.7-2.6-4
	c-1.1-1.2-2.3-2.3-3.7-3.3c-1.5-0.9-3.1-1.7-4.8-2.1c-1.7-0.4-3.5-0.5-5.3-0.2l-3.4,9.2c-1,2.5-2.4,3.7-4.2,3.7H3.6
	c-1.3,0-2.3-0.4-3-1.2c-0.7-0.8-0.8-1.6-0.4-2.6L9.8,94H4.9c-1,0-1.9-0.4-2.6-1.1c-0.7-0.7-1.1-1.6-1.1-2.6v-9.6
	c0-1.1,0.4-2,1.1-2.8s1.6-1.2,2.6-1.2h52.4c1,0,1.9,0.4,2.6,1.2c0.7,0.8,1.1,1.7,1.1,2.8v9.6c0,1-0.4,1.9-1.1,2.6
	c-0.7,0.7-1.6,1.1-2.6,1.1L33.1,94L33.1,94z M91.9,151c1,0,1.9,0.4,2.6,1.1c0.7,0.8,1,1.7,1,2.7V166c0,1.1-0.3,2-1,2.7
	c-0.7,0.7-1.6,1-2.6,1H20.1c-1.5,0-3-0.3-4.3-0.9c-1.4-0.6-2.6-1.4-3.6-2.3c-1.1-1-1.9-2.2-2.5-3.6c-0.6-1.4-0.9-2.8-0.9-4.3v-23.3
	c0-1.1,0.4-2,1.2-2.8c0.8-0.7,1.7-1.1,2.8-1.1h16.5c1,0,1.9,0.4,2.6,1.1c0.7,0.7,1.1,1.6,1.1,2.8V151L91.9,151L91.9,151z M70.5,90.8
	V79.4c0-1,0.4-1.9,1.1-2.6c0.7-0.7,1.6-1.1,2.6-1.1h16.5c1,0,1.9,0.4,2.6,1.1c0.7,0.7,1.1,1.6,1.1,2.6v54.3c0,1.1-0.4,2-1.1,2.7
	c-0.7,0.7-1.6,1-2.6,1H74.2c-1,0-1.9-0.4-2.6-1c-0.7-0.7-1.1-1.6-1.1-2.7v-22.9h-5.8c-1,0-1.9-0.4-2.6-1.1c-0.7-0.7-1.1-1.6-1.1-2.6
	V94.8c0-1.1,0.4-2,1.1-2.8c0.7-0.8,1.6-1.2,2.6-1.2H70.5z"/>
<path class="st3" d="M195.3,139.2c1,0,1.9,0.4,2.6,1.1c0.7,0.7,1,1.6,1,2.6v11.7c0,1.1-0.4,2-1,2.7c-0.7,0.7-1.6,1-2.6,1h-32v8.4
	c0,1.1-0.4,2-1.1,2.7c-0.7,0.7-1.6,1-2.6,1h-16.9c-1,0-1.9-0.4-2.6-1c-0.7-0.7-1.1-1.6-1.1-2.7v-8.4h-32c-1,0-1.9-0.4-2.6-1
	c-0.7-0.7-1-1.6-1-2.7V143c0-1,0.3-1.9,1-2.6c0.7-0.7,1.6-1.1,2.6-1.1H195.3z M153,96l-1.6,2.9c13,1.2,23.2,4.4,30.6,9.6
	c7.4,5.2,12.1,12.4,14,21.5c0.2,1.1,0.1,2.1-0.3,2.9s-1.5,1.2-3.2,1.2h-14.3c-1.5,0-2.8-0.2-3.8-0.5c-1-0.3-1.7-1.1-2.1-2.2
	c-2-5.3-5.6-9.1-10.8-11.5c-5.2-2.4-12-3.9-20.4-4.5l-9.5,15.2c-0.9,1.5-2.1,2.5-3.5,3s-2.9,0.7-4.2,0.7h-15.4c-1.2,0-2-0.3-2.5-0.9
	c-0.5-0.6-0.3-1.5,0.4-2.8L127.8,96h-18c-1,0-1.9-0.4-2.6-1.1c-0.7-0.7-1.1-1.6-1.1-2.6V80.7c0-1.1,0.4-2,1.1-2.8
	c0.7-0.8,1.6-1.2,2.6-1.2h82.7c1,0,1.9,0.4,2.6,1.2c0.7,0.8,1.1,1.7,1.1,2.8v11.6c0,1-0.4,1.9-1.1,2.6c-0.7,0.7-1.6,1.1-2.6,1.1
	C192.5,96,153,96,153,96z"/>
<path class="st3" d="M245.2,76.8c4.8,0,9.1,1.2,12.9,3.5s6.6,5.5,8.5,9.5h10.6v-9.2c0-1,0.4-1.9,1-2.6c0.7-0.7,1.6-1.1,2.6-1.1h16.6
	c1,0,1.9,0.4,2.6,1.1c0.7,0.7,1.1,1.6,1.1,2.6v86.2c0,1.1-0.4,2-1.1,2.7s-1.6,1-2.6,1h-16.6c-1,0-1.9-0.4-2.6-1
	c-0.7-0.7-1-1.6-1-2.7v-22.9H269c-0.1,3.4-0.7,6.5-1.9,9.4c-1.2,2.9-2.9,5.3-5,7.4c-2.2,2.1-4.7,3.7-7.6,4.8c-2.9,1.2-6,1.8-9.4,1.8
	h-14.1c-3.4,0-6.6-0.6-9.5-1.8c-2.9-1.2-5.4-2.8-7.5-4.9c-2.1-2.1-3.8-4.6-4.9-7.5s-1.8-6.1-1.8-9.5v-42.8c0-3.4,0.6-6.6,1.8-9.6
	c1.2-2.9,2.8-5.5,4.9-7.6c2.1-2.1,4.6-3.8,7.5-4.9s6.1-1.8,9.5-1.8L245.2,76.8L245.2,76.8z M236.9,95.5c-0.5,0-1.1,0.1-1.8,0.3
	c-0.7,0.2-1.4,0.5-2,0.9c-0.7,0.4-1.2,1.1-1.7,1.9c-0.5,0.8-0.7,1.9-0.7,3.2v40.4c0,1.3,0.2,2.4,0.7,3.2c0.5,0.8,1.1,1.4,1.7,1.9
	s1.3,0.8,2,0.9c0.7,0.2,1.3,0.3,1.8,0.3h2.6c0.5,0,1.1-0.1,1.9-0.3c0.7-0.2,1.4-0.5,2.1-0.9s1.2-1.1,1.7-1.9
	c0.5-0.8,0.7-1.9,0.7-3.2v-40.4c0-1.3-0.2-2.4-0.7-3.2c-0.5-0.8-1-1.5-1.7-1.9s-1.4-0.8-2.1-0.9s-1.4-0.3-1.9-0.3
	C239.6,95.5,236.9,95.5,236.9,95.5z M269,122.7h8.1v-11.9H269V122.7z"/>
<path class="st3" d="M311.3,101.7c0-3.2,0.5-6.1,1.4-8.5c-1,0-1.9-0.4-2.6-1.1c-0.7-0.7-1-1.6-1-2.6v-7.7c0-1.1,0.4-2,1.1-2.8
	c0.7-0.8,1.6-1.2,2.6-1.2h11.7v-3.5c0-1,0.4-1.9,1-2.6c0.7-0.7,1.6-1.1,2.6-1.1h14.4c1,0,1.9,0.4,2.6,1.1c0.7,0.7,1.1,1.6,1.1,2.6
	v3.5h11.3c1,0,1.9,0.4,2.6,1.2c0.7,0.8,1.1,1.7,1.1,2.8v7.7c0,1-0.4,1.9-1.1,2.6c-0.7,0.7-1.6,1.1-2.6,1.1c1,2.6,1.5,5.5,1.5,8.5
	v0.1c0,6.9-1.9,12.2-5.7,15.9c-3.8,3.7-9.1,5.6-16,5.6h-4.6c-6.9,0-12.2-1.9-16-5.6c-3.7-3.7-5.6-9.1-5.6-15.9L311.3,101.7
	L311.3,101.7z M394,126.6c2.6,0,5,0.5,7.3,1.5c2.3,1,4.3,2.3,6,4c1.7,1.7,3,3.7,4,5.9s1.5,4.7,1.5,7.3v5.9c0,2.6-0.5,5.1-1.5,7.4
	c-1,2.3-2.3,4.2-4,5.9c-1.8,1.7-3.8,3-6,4c-2.3,0.9-4.7,1.4-7.3,1.4h-60c-2.6,0-5-0.5-7.3-1.4c-2.3-0.9-4.2-2.3-5.9-4s-3-3.7-4-5.9
	c-1-2.3-1.5-4.7-1.5-7.4v-5.9c0-2.6,0.5-5,1.5-7.3c1-2.3,2.3-4.2,4-5.9c1.7-1.7,3.7-3,5.9-4c2.3-1,4.7-1.5,7.3-1.5H394z M341.3,98.5
	c0-0.9-0.1-1.8-0.4-2.4c-0.3-0.7-0.7-1.2-1.1-1.7c-0.5-0.4-1.1-0.6-1.6-0.8c-0.6-0.2-1.1-0.3-1.6-0.4h-1.6c-1,0.2-2.1,0.6-3.1,1.3
	c-1.1,0.7-1.6,2-1.6,4v4.3c0,1,0.2,1.9,0.5,2.5c0.4,0.7,0.8,1.2,1.3,1.5c0.5,0.4,1.1,0.7,1.6,0.9c0.6,0.2,1.1,0.2,1.6,0.2h0.8
	c0.5,0,1.1-0.1,1.7-0.2c0.6-0.2,1.2-0.4,1.7-0.9c0.5-0.4,1-0.9,1.3-1.5s0.5-1.5,0.5-2.5L341.3,98.5L341.3,98.5z M341.3,144.3
	c-2.4,0-3.5,1.1-3.5,3.2v1.8c0,2.1,1.2,3.1,3.5,3.1h45.4c1,0,1.9-0.3,2.6-0.9c0.7-0.6,1-1.3,1-2.2v-1.8c0-1-0.3-1.8-1-2.4
	c-0.7-0.6-1.5-0.8-2.6-0.8H341.3z M381.6,75.7c1,0,1.9,0.4,2.6,1.1c0.7,0.7,1.1,1.6,1.1,2.6v9.2h5.2v-9.2c0-1,0.4-1.9,1-2.6
	s1.6-1.1,2.6-1.1h14.3c1,0,1.9,0.4,2.6,1.1c0.7,0.7,1.1,1.6,1.1,2.6v40.2c0,1.1-0.4,2-1.1,2.7c-0.7,0.7-1.6,1.1-2.6,1.1h-14.3
	c-1,0-1.9-0.3-2.6-1.1c-0.7-0.7-1-1.6-1-2.7v-12h-5.2v11.8c0,1.1-0.4,2-1.1,2.7c-0.7,0.7-1.6,1-2.6,1h-14.1c-1,0-1.9-0.3-2.6-1
	c-0.7-0.7-1-1.6-1-2.7V79.4c0-1,0.4-1.9,1-2.6c0.7-0.7,1.6-1.1,2.6-1.1H381.6z"/>
<path class="st3" d="M220.7,19.9c-1-0.9-5.9,0.8-10.1-3.4c-5.9-6-14.6-6.3-17.2-6.2c-0.5,0-1,0-1.6,0c-3.3,0.2-5.1,1.2-5.1,2.6
	c0.3,4.2,0.4,9.6,0.5,15.2c5.1-2.9,9.3-1.5,11.3-1.3c1.8-0.9,4.6-1.4,8.9-0.4C215.8,28.5,221.6,20.8,220.7,19.9"/>
<path class="st2" d="M187.3,28.1c0.2,12.1,0.1,25.7-0.2,32.7c-0.1,2,1.8,2.2,3.3,2.3c1.8,0.2,5.1,0.8,5.6-1.6
	c1.4-6.1,2.5-21.7,2.6-34.7c0,0,0,0,0,0C196.6,26.6,192.5,25.1,187.3,28.1"/>
</svg>
